<?xml version="1.0" encoding="UTF-8"?>
<svg width="64" height="64" viewBox="0 0 512 512" xmlns="http://www.w3.org/2000/svg">
  <defs>
    <radialGradient id="oceanV3" cx="34%" cy="28%" r="78%">
      <stop offset="0%" stop-color="#8FE1FF"/>
      <stop offset="38%" stop-color="#39AEE8"/>
      <stop offset="75%" stop-color="#15B0A6"/>
      <stop offset="100%" stop-color="#0A8E96"/>
    </radialGradient>

    <linearGradient id="shineV3" x1="0" y1="0" x2="1" y2="1">
      <stop offset="0%" stop-color="#FFFFFF" stop-opacity="0.62"/>
      <stop offset="46%" stop-color="#FFFFFF" stop-opacity="0.16"/>
      <stop offset="100%" stop-color="#FFFFFF" stop-opacity="0"/>
    </linearGradient>

    <clipPath id="globeClipV3">
      <circle cx="256" cy="256" r="236"/>
    </clipPath>
  </defs>

  <circle cx="256" cy="256" r="236" fill="url(#oceanV3)"/>

  <g clip-path="url(#globeClipV3)" fill="none" stroke="#FFFFFF" stroke-opacity="0.24" stroke-width="7">
    <ellipse cx="256" cy="256" rx="205" ry="236"/>
    <ellipse cx="256" cy="256" rx="150" ry="236"/>
    <ellipse cx="256" cy="256" rx="94" ry="236"/>
    <ellipse cx="256" cy="256" rx="40" ry="236"/>
  </g>

  <g clip-path="url(#globeClipV3)" fill="none" stroke="#FFFFFF" stroke-opacity="0.2" stroke-width="7">
    <ellipse cx="256" cy="256" rx="236" ry="172"/>
    <ellipse cx="256" cy="256" rx="236" ry="106"/>
    <ellipse cx="256" cy="256" rx="236" ry="48"/>
  </g>

  <g clip-path="url(#globeClipV3)">
    <path d="M 512 0 L 512 190 L 320 0 Z" fill="#FFD166" opacity="0.95"/>
  </g>

  <g clip-path="url(#globeClipV3)">
    <ellipse cx="200" cy="170" rx="196" ry="140" fill="url(#shineV3)"/>
  </g>

  <g fill="none" stroke="#FFFFFF" stroke-width="40" stroke-linecap="round" stroke-linejoin="round">
    <path d="M 170 140 L 256 230"/>
    <path d="M 342 140 L 256 230"/>
    <path d="M 256 230 L 256 360"/>
  </g>

  <circle cx="256" cy="256" r="236" fill="none" stroke="#FFFFFF" stroke-opacity="0.2" stroke-width="6"/>
</svg>
