<?xml version="1.0" encoding="UTF-8" standalone="no"?>
<!-- Created with Inkscape (http://www.inkscape.org/) -->

<svg
   width="210mm"
   height="297mm"
   viewBox="0 0 210 297"
   version="1.1"
   id="svg1"
   xml:space="preserve"
   inkscape:version="1.4.2 (f4327f4, 2025-05-13)"
   sodipodi:docname="YuplanUnified.svg"
   inkscape:export-filename="YuplanUnified.svg"
   inkscape:export-xdpi="96"
   inkscape:export-ydpi="96"
   xmlns:inkscape="http://www.inkscape.org/namespaces/inkscape"
   xmlns:sodipodi="http://sodipodi.sourceforge.net/DTD/sodipodi-0.dtd"
   xmlns="http://www.w3.org/2000/svg"
   xmlns:svg="http://www.w3.org/2000/svg"><sodipodi:namedview
     id="namedview1"
     pagecolor="#ffffff"
     bordercolor="#000000"
     borderopacity="0.25"
     inkscape:showpageshadow="2"
     inkscape:pageopacity="0.0"
     inkscape:pagecheckerboard="0"
     inkscape:deskcolor="#d1d1d1"
     inkscape:document-units="mm"
     inkscape:zoom="0.5"
     inkscape:cx="-344"
     inkscape:cy="193"
     inkscape:window-width="1920"
     inkscape:window-height="991"
     inkscape:window-x="-9"
     inkscape:window-y="-9"
     inkscape:window-maximized="1"
     inkscape:current-layer="layer1" /><defs
     id="defs1" /><g
     inkscape:label="Lager 1"
     inkscape:groupmode="layer"
     id="layer1"><path
       style="fill:#000000"
       d="M 7.7270903,75.655503 V 9.4885033 H 73.894098 140.06109 V 75.655503 141.8225 H 73.894098 7.7270903 Z m 53.2200777,27.285157 2.44825,-0.0225 0.0137,-1.905 c 0.008,-1.047747 0.0186,-3.657597 0.0246,-5.799667 0.01,-3.50395 0.0235,-3.87131 0.13717,-3.66183 0.0695,0.12806 0.17758,0.23283 0.24024,0.23283 0.0627,0 0.15929,0.0547 0.21473,0.12146 0.0554,0.0668 0.24108,0.19501 0.41253,0.2849 0.17145,0.0899 0.45577,0.24479 0.63181,0.34421 0.17604,0.0994 0.37607,0.18076 0.4445,0.18076 0.0684,0 0.12442,0.0381 0.12442,0.0847 0,0.0466 0.0476,0.0849 0.10584,0.0852 0.0582,2.9e-4 0.2104,0.0551 0.33821,0.12174 0.12781,0.0667 0.41356,0.14745 0.635,0.1795 0.22144,0.032 0.44072,0.0861 0.48729,0.12011 0.18576,0.13568 1.91208,0.27891 2.60137,0.21584 0.38535,-0.0353 0.92923,-0.0751 1.20863,-0.0886 0.5605,-0.027 1.79523,-0.3208 1.93478,-0.46035 0.0488,-0.0488 0.14781,-0.0888 0.21999,-0.0888 0.12215,-6e-5 0.93156,-0.37952 1.31656,-0.61721 0.0931,-0.0575 0.35031,-0.21246 0.5715,-0.34435 0.22119,-0.13189 0.40217,-0.26968 0.40217,-0.30621 0,-0.0706 0.39866,-0.48597 1.04542,-1.08929 0.21665,-0.20211 0.39391,-0.41528 0.39391,-0.47371 0,-0.0584 0.0762,-0.17521 0.16934,-0.2595 0.0931,-0.0843 0.16933,-0.20131 0.16933,-0.26006 0,-0.0588 0.0357,-0.11952 0.0793,-0.13505 0.0806,-0.0287 0.44263,-0.64994 0.78112,-1.34055 0.19087,-0.38944 0.20011,-0.4189 0.29223,-0.93134 0.0293,-0.16298 0.10873,-0.35974 0.17651,-0.43724 0.0678,-0.0775 0.11274,-0.21084 0.0999,-0.29633 -0.0128,-0.0855 0.0197,-0.28878 0.0723,-0.45176 0.0526,-0.16298 0.12491,-0.62018 0.16067,-1.016 0.0862,-0.95461 0.048,-3.45124 -0.0559,-3.64529 -0.0452,-0.0845 -0.0822,-0.30623 -0.0822,-0.49281 0,-0.18658 -0.0381,-0.36279 -0.0847,-0.39157 -0.0466,-0.0288 -0.0847,-0.18342 -0.0847,-0.34366 0,-0.16023 -0.0381,-0.29134 -0.0847,-0.29134 -0.0466,0 -0.0847,-0.11205 -0.0847,-0.249 0,-0.13695 -0.0381,-0.27255 -0.0847,-0.30133 -0.0466,-0.0288 -0.0847,-0.14533 -0.0847,-0.259 0,-0.11366 -0.0381,-0.20667 -0.0847,-0.20667 -0.0466,0 -0.0847,-0.0539 -0.0847,-0.1198 0,-0.0659 -0.15803,-0.41831 -0.35117,-0.78316 -0.32889,-0.62131 -0.43562,-0.79534 -0.95199,-1.55237 -0.28048,-0.41119 -1.13915,-1.20338 -1.23809,-1.14223 -0.0469,0.029 -0.0582,-0.0103 -0.0266,-0.0926 0.0376,-0.0979 0.0186,-0.13086 -0.0603,-0.10457 -0.0633,0.0211 -0.22746,-0.0689 -0.36472,-0.20011 -0.13726,-0.13117 -0.30106,-0.2385 -0.36401,-0.2385 -0.0629,0 -0.11444,-0.0381 -0.11444,-0.0847 0,-0.0466 -0.0762,-0.0847 -0.16933,-0.0847 -0.0931,0 -0.16933,-0.0381 -0.16933,-0.0847 0,-0.0466 -0.0572,-0.0847 -0.127,-0.0847 -0.0698,0 -0.127,-0.0353 -0.127,-0.0785 0,-0.0907 -0.47852,-0.34487 -0.64916,-0.34487 -0.0633,0 -0.1813,-0.0344 -0.26216,-0.0764 -0.14045,-0.073 -0.56455,-0.19483 -1.20535,-0.34625 -0.60216,-0.14229 -1.54433,-0.25469 -2.13941,-0.25523 -0.66028,-6e-4 -1.86147,0.1438 -2.13626,0.25682 -0.15785,0.0649 -0.32787,0.10685 -0.90744,0.22375 -0.12656,0.0255 -0.27084,0.0955 -0.32061,0.15546 -0.0498,0.06 -0.16531,0.0895 -0.25673,0.0656 -0.11356,-0.0297 -0.16622,-9.5e-4 -0.16622,0.0907 0,0.0842 -0.0471,0.11615 -0.12629,0.0858 -0.0731,-0.0281 -0.14902,0.0108 -0.18025,0.0922 -0.0297,0.0773 -0.10765,0.12005 -0.17326,0.0949 -0.0656,-0.0252 -0.14096,0.0107 -0.16746,0.0798 -0.0265,0.0691 -0.10126,0.12557 -0.16613,0.12557 -0.0649,0 -0.11794,0.0381 -0.11794,0.0847 0,0.0466 -0.0384,0.0847 -0.0854,0.0847 -0.0944,0 -0.40078,0.25751 -1.03746,0.87201 -0.23156,0.22349 -0.43983,0.38753 -0.46284,0.36452 -0.023,-0.023 -0.0471,-0.52391 -0.0536,-1.11313 l -0.0117,-1.0713 -2.57597,0.006 c -1.41678,0.003 -2.60784,0.038 -2.64679,0.077 -0.11446,0.11447 -0.0872,29.230997 0.0275,29.369207 0.0651,0.0785 0.12772,0.0882 0.19711,0.0306 0.0609,-0.0506 1.08252,-0.0934 2.54993,-0.10687 z m 5.87725,-13.488087 c -0.11641,-0.0646 -0.29514,-0.11875 -0.39717,-0.1204 -0.10202,-0.002 -0.20943,-0.0417 -0.23868,-0.0891 -0.0292,-0.0473 -0.0889,-0.064 -0.13265,-0.0369 -0.0437,0.027 -0.13898,-0.0104 -0.21173,-0.0832 -0.0728,-0.0727 -0.23438,-0.15713 -0.35919,-0.18751 -0.26379,-0.0642 -1.28524,-1.06047 -1.28524,-1.25355 0,-0.0719 -0.0381,-0.1308 -0.0847,-0.1308 -0.0466,0 -0.0847,-0.0762 -0.0847,-0.16934 0,-0.0931 -0.0381,-0.16933 -0.0847,-0.16933 -0.0466,0 -0.0847,-0.0577 -0.0847,-0.12815 0,-0.0705 -0.0344,-0.1943 -0.0764,-0.27516 -0.30134,-0.57977 -0.44588,-2.18921 -0.3493,-3.88951 0.089,-1.56614 0.21074,-2.23075 0.52026,-2.8392 0.0411,-0.0809 0.0748,-0.20468 0.0748,-0.27516 0,-0.0705 0.0381,-0.12815 0.0847,-0.12815 0.0466,0 0.0847,-0.0572 0.0847,-0.127 0,-0.0699 0.0381,-0.127 0.0847,-0.127 0.0466,0 0.0847,-0.0512 0.0847,-0.11388 0,-0.0626 0.0762,-0.18284 0.16933,-0.26712 0.0931,-0.0843 0.16938,-0.19497 0.16944,-0.24596 1.4e-4,-0.125 0.3786,-0.55838 0.48762,-0.55838 0.0479,0 0.20939,-0.1143 0.35894,-0.254 0.14955,-0.1397 0.29057,-0.254 0.31338,-0.254 0.0228,0 0.15349,-0.0798 0.29039,-0.17723 0.1369,-0.0975 0.30349,-0.1563 0.37019,-0.1307 0.0667,0.0256 0.14168,0.0135 0.1666,-0.0268 0.0953,-0.15422 1.20015,-0.27563 2.07677,-0.22821 0.48895,0.0264 0.98959,0.0493 1.11253,0.0509 0.12294,0.002 0.24444,0.0573 0.26999,0.12386 0.0267,0.0696 0.11419,0.10335 0.20572,0.0794 0.0876,-0.0229 0.20889,0.0182 0.26954,0.0912 0.0607,0.0731 0.16277,0.13289 0.22692,0.13289 0.0642,0 0.11664,0.0301 0.11664,0.0668 0,0.0367 0.20533,0.19122 0.4563,0.34332 0.45975,0.27864 0.91822,0.72581 0.96713,0.94329 0.0145,0.0647 0.0907,0.17752 0.16933,0.25082 0.13604,0.12687 0.25098,0.30527 0.43924,0.68179 0.0466,0.0931 0.12276,0.24501 0.16933,0.33752 0.0466,0.0925 0.0847,0.22585 0.0847,0.29633 0,0.0705 0.0328,0.12815 0.0729,0.12815 0.0401,0 0.0548,0.0948 0.0327,0.21061 -0.0273,0.14251 0.004,0.22758 0.0964,0.26306 0.10215,0.0392 0.13667,0.16653 0.13667,0.50406 0,0.24838 0.03,0.47016 0.0667,0.49283 0.14271,0.0882 -0.0156,3.4401 -0.1625,3.4401 -0.0404,0 -0.0735,0.12869 -0.0735,0.28597 0,0.15728 -0.0549,0.33152 -0.12197,0.38719 -0.0671,0.0557 -0.10302,0.15059 -0.0799,0.21092 0.0232,0.0603 -0.0363,0.24805 -0.13203,0.41715 -0.0958,0.16909 -0.25256,0.44592 -0.34842,0.61518 -0.32638,0.57627 -1.17787,1.28015 -1.94238,1.60568 -0.16298,0.0694 -0.37253,0.15872 -0.46566,0.1985 -0.48465,0.207 -0.78569,0.24404 -1.98967,0.24477 -0.96189,5.8e-4 -1.36886,-0.0306 -1.524,-0.11662 z m -3.556,-13.3314 c 0,-0.0621 0.0254,-0.0875 0.0564,-0.0564 0.031,0.031 0.031,0.0819 0,0.11289 -0.031,0.031 -0.0564,0.006 -0.0564,-0.0564 z m -18.33033,17.27888 c 1.00536,-0.15844 1.09412,-0.17813 1.17723,-0.26124 0.0464,-0.0464 0.17194,-0.0843 0.27904,-0.0843 0.1071,0 0.19473,-0.0288 0.19473,-0.0641 0,-0.0352 0.16193,-0.11442 0.35984,-0.17598 0.19791,-0.0615 0.48111,-0.20418 0.62935,-0.31694 0.14823,-0.11277 0.29919,-0.20503 0.33546,-0.20503 0.0363,0 0.23884,-0.16821 0.45015,-0.37381 0.65412,-0.63642 0.94528,-0.89619 1.00455,-0.89623 0.0313,-2e-5 0.057,0.42155 0.057,0.93684 v 0.93688 l 2.62467,-0.003 2.62466,-0.003 1.3e-4,-9.65255 1.3e-4,-9.65254 -2.56955,-0.0235 c -1.41325,-0.0129 -2.60456,-0.002 -2.64736,0.0247 -0.0853,0.0529 -0.11474,11.39143 -0.0301,11.61197 0.0278,0.0725 -0.0101,0.42533 -0.0842,0.78416 -0.0741,0.35882 -0.1114,0.77689 -0.0829,0.92905 0.0388,0.20688 0.0184,0.2895 -0.0809,0.3276 -0.073,0.028 -0.11218,0.10462 -0.087,0.17023 0.0252,0.0656 -0.01,0.14067 -0.0781,0.16682 -0.0681,0.0261 -0.15139,0.17278 -0.18501,0.32586 -0.0575,0.26159 -0.7251,1.00311 -0.90318,1.00311 -0.0411,0 -0.15653,0.0762 -0.2565,0.16934 -0.1,0.0931 -0.26757,0.16933 -0.37246,0.16933 -0.10489,0 -0.21165,0.0339 -0.23725,0.0753 -0.0527,0.0853 -0.43059,0.15268 -1.23345,0.22007 -0.73166,0.0614 -1.92784,-0.10395 -2.2144,-0.30614 -0.12361,-0.0872 -0.26748,-0.15857 -0.31973,-0.15857 -0.11899,0 -0.852528,-0.72658 -0.852528,-0.84444 0,-0.0478 -0.0381,-0.0869 -0.0847,-0.0869 -0.0466,0 -0.0847,-0.0952 -0.0847,-0.21166 0,-0.11642 -0.0381,-0.21167 -0.0847,-0.21167 -0.0466,0 -0.0847,-0.11205 -0.0847,-0.249 0,-0.13695 -0.0341,-0.2701 -0.0758,-0.29588 -0.13184,-0.0815 -0.1898,-2.29272 -0.20985,-8.00645 l -0.0195,-5.54567 -2.49326,-0.0423 c -1.76663,-0.03 -2.52606,-0.0148 -2.6058,0.0521 -0.0912,0.0765 -0.11591,1.1461 -0.13029,5.63034 -0.0207,6.44936 0.0664,9.27225 0.29337,9.51103 0.0421,0.0442 0.0765,0.18763 0.0765,0.31865 0,0.13102 0.0341,0.30437 0.0758,0.38523 0.0417,0.0809 0.20167,0.40792 0.35554,0.72679 0.42815,0.8873 1.81657,2.32579 2.25686,2.33824 0.0582,0.002 0.10583,0.0343 0.10583,0.0726 0,0.0966 0.77644,0.43842 0.99575,0.43842 0.0988,0 0.20314,0.0381 0.23192,0.0847 0.0288,0.0466 0.15676,0.0847 0.2844,0.0847 0.12764,0 0.27372,0.0417 0.32463,0.0926 0.22311,0.2231 2.177598,0.27162 3.370298,0.0837 z m 52.9452,0.0346 c 0.20196,-0.0123 0.40961,-0.0647 0.46144,-0.11654 0.0518,-0.0518 0.21771,-0.0942 0.36863,-0.0942 0.15093,0 0.29796,-0.0381 0.32674,-0.0847 0.0288,-0.0466 0.14307,-0.0847 0.254,-0.0847 0.11092,0 0.22255,-0.0338 0.24806,-0.0751 0.0255,-0.0413 0.18217,-0.10054 0.34812,-0.13167 0.165942,-0.0311 0.322842,-0.11165 0.348662,-0.17893 0.0258,-0.0673 0.10351,-0.12233 0.17266,-0.12233 0.15087,0 0.43649,-0.21702 1.14546,-0.87038 l 0.53104,-0.48938 0.0658,0.40471 c 0.0362,0.2226 0.0432,0.62918 0.0156,0.90353 l -0.0502,0.49882 0.32306,-0.0534 c 0.17768,-0.0294 1.34223,-0.0538 2.58789,-0.0543 l 2.26484,-9.3e-4 v -6.46321 c 0,-5.26817 -0.0231,-6.61726 -0.12507,-7.29633 -0.0688,-0.45822 -0.16403,-0.8721 -0.21167,-0.91973 -0.0476,-0.0476 -0.0866,-0.19328 -0.0866,-0.32367 0,-0.13038 -0.0425,-0.23706 -0.0945,-0.23706 -0.0551,0 -0.0777,-0.088 -0.0542,-0.21113 0.023,-0.12012 -0.009,-0.25233 -0.0748,-0.3067 -0.0633,-0.0526 -0.11515,-0.15015 -0.11515,-0.21685 0,-0.3752 -1.79853,-2.39799 -2.13213,-2.39799 -0.0846,0 -0.15387,-0.0349 -0.15387,-0.0776 0,-0.0946 -1.01758,-0.59972 -1.2082,-0.59972 -0.0751,0 -0.15785,-0.0346 -0.18397,-0.0768 -0.0261,-0.0423 -0.26649,-0.14145 -0.53416,-0.22043 -0.26767,-0.079 -0.59714,-0.17776 -0.73214,-0.2195 -0.13501,-0.0417 -0.40875,-0.0759 -0.60832,-0.0759 -0.19957,0 -0.46799,-0.04 -0.59649,-0.0888 -0.31696,-0.12051 -2.107962,-0.1202 -2.808052,4.9e-4 -0.70584,0.12169 -1.33629,0.25171 -1.66834,0.34407 -0.92767,0.25804 -1.53315,0.47256 -1.58974,0.56323 -0.0362,0.0579 -0.12156,0.0839 -0.18979,0.0577 -0.0706,-0.0271 -0.14731,0.013 -0.17802,0.0931 -0.0297,0.0774 -0.10305,0.12182 -0.16304,0.0988 -0.06,-0.023 -0.13007,0.0129 -0.15575,0.0798 -0.0257,0.0669 -0.10503,0.12165 -0.17634,0.12165 -0.0713,0 -0.12965,0.0381 -0.12965,0.0847 0,0.0466 -0.0572,0.0847 -0.127,0.0847 -0.0699,0 -0.127,0.0317 -0.127,0.0704 0,0.0387 -0.1036,0.12443 -0.23022,0.1905 -0.29096,0.15185 -1.03852,0.83999 -1.04363,0.96069 -0.002,0.0499 -0.1722,0.26177 -0.37797,0.47075 -0.45116,0.45821 -0.41664,0.56127 0.32107,0.95864 0.26624,0.14341 0.48408,0.31304 0.48408,0.37695 0,0.0777 0.0562,0.0984 0.16933,0.0625 0.0988,-0.0314 0.16934,-0.0152 0.16934,0.0387 0,0.0509 0.10073,0.13077 0.22385,0.17758 0.12312,0.0468 0.36673,0.19827 0.54135,0.33657 0.36473,0.28887 0.58722,0.32067 0.6469,0.0925 0.0229,-0.0875 0.1336,-0.20094 0.24607,-0.25219 0.11247,-0.0512 0.20449,-0.13089 0.20449,-0.17699 0,-0.0461 0.0526,-0.0637 0.11681,-0.039 0.0642,0.0246 0.19355,-0.0528 0.28735,-0.172 0.0938,-0.11924 0.23174,-0.21681 0.30653,-0.21681 0.0748,0 0.13598,-0.0381 0.13598,-0.0847 0,-0.0466 0.0762,-0.0847 0.16933,-0.0847 0.0931,0 0.16934,-0.0381 0.16934,-0.0847 0,-0.0466 0.093,-0.0847 0.20666,-0.0847 0.11367,0 0.23031,-0.0382 0.25919,-0.085 0.0289,-0.0467 0.14508,-0.0617 0.25821,-0.0334 0.14237,0.0357 0.22114,0.0114 0.25588,-0.0792 0.11219,-0.29235 3.930722,-0.003 3.930722,0.29765 0,0.038 0.0628,0.0692 0.13963,0.0692 0.0768,0 0.33806,0.21152 0.58059,0.47005 0.3473,0.37022 0.47167,0.58152 0.58553,0.99484 0.0795,0.28863 0.18426,0.65303 0.23278,0.80978 0.12056,0.38949 -0.0464,0.72026 -0.32799,0.64959 -0.1956,-0.0491 -0.83476,0.11215 -1.37033,0.34569 -0.17229,0.0751 -0.385832,0.10331 -0.534852,0.0706 -0.16865,-0.037 -0.29484,-0.0122 -0.39417,0.0777 -0.0885,0.0801 -0.29485,0.13051 -0.52349,0.12786 -0.20755,-0.002 -0.58691,0.0334 -0.84303,0.0796 -0.25612,0.0462 -0.7093,0.12345 -1.00707,0.17174 -0.29777,0.0483 -0.58161,0.12803 -0.63076,0.17718 -0.0492,0.0491 -0.2319,0.0894 -0.40611,0.0894 -0.1742,0 -0.34028,0.0381 -0.36906,0.0847 -0.0288,0.0466 -0.18343,0.0847 -0.34367,0.0847 -0.16023,0 -0.29133,0.0387 -0.29133,0.086 0,0.0473 -0.11051,0.0776 -0.24557,0.0673 -0.13506,-0.0103 -0.30484,0.0305 -0.37729,0.0906 -0.0725,0.0601 -0.16449,0.0891 -0.20453,0.0643 -0.10207,-0.0631 -0.72636,0.16201 -0.7642,0.27553 -0.0172,0.0515 -0.10473,0.0936 -0.19462,0.0936 -0.15277,0 -0.48899,0.15002 -0.58446,0.26079 -0.0233,0.027 -0.16616,0.10299 -0.3175,0.16883 -0.15134,0.0658 -0.27516,0.14852 -0.27516,0.18372 0,0.0352 -0.0377,0.064 -0.0837,0.064 -0.046,0 -0.16811,0.0667 -0.27128,0.14816 -0.30076,0.23758 -1.25369,1.17423 -1.25369,1.23228 0,0.0292 -0.1143,0.23324 -0.254,0.45353 -0.1397,0.22028 -0.254,0.4883 -0.254,0.5956 0,0.1073 -0.0298,0.19509 -0.0662,0.19509 -0.0364,0 -0.12213,0.18098 -0.1905,0.40217 -0.16714,0.54069 -0.17551,2.72772 -0.0112,2.92555 0.0622,0.0749 0.0902,0.17335 0.0621,0.21876 -0.0281,0.0454 0.012,0.22805 0.0891,0.40588 0.0771,0.17782 0.16786,0.39951 0.20174,0.49264 0.0339,0.0931 0.11338,0.27811 0.17666,0.41105 0.1549,0.32543 1.66364,1.8526 1.98194,2.00615 0.1397,0.0674 0.27305,0.14216 0.29633,0.16615 0.14756,0.152 1.28014,0.60921 1.59625,0.64438 0.98945,0.11009 1.56099,0.19809 1.60794,0.24758 0.0305,0.0322 0.45553,0.0302 0.94448,-0.004 0.48895,-0.0346 1.05423,-0.0729 1.25619,-0.0852 z m -0.83286,-3.59855 c -0.0699,-0.0445 -0.21635,-0.0815 -0.32556,-0.0823 -0.26749,-0.002 -1.10981,-0.46951 -1.34927,-0.74929 -0.21725,-0.25381 -0.36478,-0.54728 -0.43267,-0.86068 -0.0751,-0.34668 -0.0431,-1.87336 0.0405,-1.93379 0.0425,-0.0307 0.11542,-0.11679 0.16199,-0.19124 0.29919,-0.47837 0.5221,-0.75168 0.61383,-0.75258 0.0582,-5.8e-4 0.17329,-0.0677 0.25574,-0.14922 0.0825,-0.0815 0.33962,-0.23715 0.5715,-0.34592 0.23188,-0.10876 0.52946,-0.25163 0.66129,-0.3175 0.13183,-0.0659 0.31056,-0.11975 0.39717,-0.11975 0.0866,0 0.18102,-0.0381 0.2098,-0.0847 0.0288,-0.0466 0.18118,-0.0847 0.33867,-0.0847 0.15749,0 0.30673,-0.033 0.33165,-0.0733 0.0249,-0.0403 0.1428,-0.0547 0.26196,-0.0319 0.13327,0.0255 0.27705,-0.0132 0.37357,-0.10059 0.11035,-0.0999 0.29163,-0.13842 0.61087,-0.12991 0.570962,0.0152 2.098902,-0.10232 1.956782,-0.15051 -0.20497,-0.0695 -0.10271,-0.19111 0.16072,-0.19111 h 0.26655 l -0.0458,1.7795 c -0.0252,0.97873 -0.0824,1.82645 -0.12725,1.88383 -0.0448,0.0574 -0.13271,0.28286 -0.19533,0.50107 -0.0626,0.2182 -0.14436,0.37788 -0.18164,0.35483 -0.0373,-0.023 -0.0678,0.0111 -0.0678,0.0758 0,0.23533 -1.36488,1.38765 -1.52581,1.28819 -0.0456,-0.0282 -0.0829,0.0126 -0.0829,0.0907 0,0.0986 -0.05,0.1288 -0.16386,0.099 -0.0901,-0.0236 -0.233,0.004 -0.3175,0.0623 -0.26931,0.18434 -2.17667,0.35434 -2.39731,0.21368 z M 28.07548,87.360683 c -0.0136,-5.48446 0.0103,-6.07481 0.24628,-6.07481 0.0352,0 0.064,-0.0571 0.064,-0.127 0,-0.0699 0.0762,-0.2032 0.16933,-0.29633 0.0931,-0.0931 0.16934,-0.24553 0.16934,-0.33867 0,-0.0931 0.0376,-0.16933 0.0835,-0.16933 0.0459,0 0.13925,-0.13335 0.20734,-0.29633 0.0681,-0.16299 0.16794,-0.29634 0.22187,-0.29634 0.0539,0 0.0765,-0.0561 0.0502,-0.12476 -0.0263,-0.0686 -0.002,-0.15434 0.0544,-0.1905 0.0908,-0.0583 0.32641,-0.45673 0.60177,-1.01757 0.0513,-0.10442 0.12179,-0.19014 0.15671,-0.1905 0.0349,-3.7e-4 0.0635,-0.0542 0.0635,-0.11966 0,-0.15928 0.34234,-0.81242 0.53668,-1.02392 0.19793,-0.21541 0.58808,-0.97333 0.50191,-0.97505 -0.0357,-7.1e-4 -0.0268,-0.0293 0.0197,-0.0635 0.0466,-0.0342 0.13588,-0.15315 0.19847,-0.2643 0.0626,-0.11116 0.18641,-0.33139 0.27516,-0.48941 0.0888,-0.15802 0.16137,-0.32584 0.16137,-0.37294 0,-0.0471 0.0762,-0.16742 0.16934,-0.26739 0.0931,-0.1 0.16933,-0.26141 0.16933,-0.35877 0,-0.0974 0.0785,-0.23305 0.17442,-0.30153 0.0959,-0.0685 0.2914,-0.37218 0.43438,-0.67486 0.14297,-0.30269 0.31484,-0.61347 0.38192,-0.69064 0.13776,-0.15848 0.48463,-0.78058 0.88952,-1.59536 0.15042,-0.30269 0.30325,-0.56304 0.33962,-0.57856 0.0364,-0.0155 0.0661,-0.10124 0.0661,-0.1905 0,-0.0892 0.0381,-0.16228 0.0847,-0.16228 0.0466,0 0.0847,-0.0762 0.0847,-0.16933 0,-0.0931 0.0324,-0.16933 0.072,-0.16933 0.0396,0 0.19934,-0.25718 0.35498,-0.5715 0.15563,-0.31433 0.32716,-0.62865 0.38117,-0.6985 0.054,-0.0699 0.26221,-0.4318 0.46267,-0.80434 0.20046,-0.37253 0.49763,-0.92498 0.66037,-1.22766 0.16274,-0.30269 0.4338,-0.81704 0.60236,-1.143 0.44695,-0.86431 0.40644,-0.82354 0.65586,-0.66011 0.12705,0.0832 0.38544,0.14234 0.62241,0.14234 0.50418,0 0.95861,-0.31561 1.19087,-0.82707 0.35211,-0.77535 0.20577,-1.11978 -1.14071,-2.68494 -0.61067,-0.70985 -1.35796,-1.58696 -1.66064,-1.94915 -0.86246,-1.032 -1.79168,-2.12498 -2.04302,-2.40307 -0.12626,-0.1397 -0.39451,-0.45139 -0.59611,-0.69263 -2.17374,-2.60128 -2.87136,-3.44586 -4.24004,-5.13321 -0.87312,-1.07641 -1.5875,-1.99244 -1.5875,-2.03561 0,-0.0432 0.20123,-0.33036 0.44718,-0.63819 0.41279,-0.51666 1.03186,-1.37556 2.0407,-2.83126 0.27553,-0.39757 0.39257,-0.64621 0.37459,-0.79579 -0.03,-0.24955 -0.23803,-0.41216 -0.43206,-0.33771 -0.0729,0.028 -0.52579,0.53695 -1.00634,1.13102 -1.57711,1.94966 -2.10408,2.57038 -2.18219,2.57038 -0.0424,0 -0.15742,-0.11293 -0.2557,-0.25094 l -0.17869,-0.25095 0.89087,-1.12489 c 1.56588,-1.9772 1.99497,-2.5471 1.99497,-2.64956 0,-0.17339 -0.31644,-0.39904 -0.48076,-0.34283 -0.12007,0.0411 -1.83044,2.08446 -2.75208,3.2879 l -0.1425,0.18609 -0.21733,-0.20417 c -0.11953,-0.11229 -0.21733,-0.25544 -0.21733,-0.3181 0,-0.0627 0.31433,-0.50782 0.6985,-0.98922 1.26107,-1.58024 1.88341,-2.42512 1.91079,-2.59405 0.0181,-0.11149 -0.0446,-0.19892 -0.19016,-0.26523 -0.28404,-0.12941 -0.29416,-0.11977 -1.76832,1.68478 -0.65621,0.80328 -1.21396,1.45839 -1.23946,1.45582 -0.0255,-0.003 -0.13457,-0.1164 -0.2424,-0.25293 -0.16806,-0.2128 -0.18015,-0.27002 -0.0847,-0.40075 0.0613,-0.0839 0.63526,-0.82497 1.27555,-1.64687 0.64029,-0.8219 1.16417,-1.54624 1.16417,-1.60964 0,-0.34675 -0.51878,-0.42546 -0.79462,-0.12056 -0.0985,0.10885 -0.34931,0.38508 -0.55741,0.61384 -0.2081,0.22876 -0.71267,0.78692 -1.12127,1.24035 l -0.74292,0.82443 -1.40438,-1.75576 c -0.77242,-0.96567 -1.47784,-1.7903 -1.56762,-1.83252 -0.26396,-0.12414 -0.55551,0.0617 -0.61782,0.39387 -0.0599,0.31947 0.123,1.40331 0.36411,2.15737 0.21814,0.6822 0.54603,1.44961 1.03265,2.4169 l 0.41624,0.82737 -0.16842,0.23096 c -0.2981,0.40879 -0.42561,1.1497 -0.40403,2.34762 0.019,1.05679 0.0106,1.11755 -0.21095,1.524 -0.31174,0.57186 -0.41928,0.68202 -1.23899,1.26922 -1.16977,0.83797 -2.15356,2.02209 -2.69257,3.24089 -0.12484,0.28228 -0.467,0.76494 -0.82337,1.16145 -0.33537,0.37314 -0.83325,0.94514 -1.10642,1.27111 -0.62061,0.74059 -1.55829,1.81755 -3.39922,3.90414 -0.63687,0.72186 -0.79651,1.02177 -0.79266,1.48915 0.004,0.4558 0.1189,0.66329 0.54734,0.98632 0.62251,0.46937 0.80132,0.64664 0.80283,0.79589 8.3e-4,0.0815 0.0339,0.14816 0.0735,0.14816 0.0396,0 0.19986,0.25718 0.35613,0.5715 0.15627,0.31433 0.38244,0.7239 0.50258,0.91017 0.12015,0.18627 0.29241,0.48154 0.38279,0.65617 0.0904,0.17462 0.19378,0.3175 0.22976,0.3175 0.036,0 0.0654,0.0548 0.0654,0.12178 0,0.11706 0.4823,1.06116 0.58657,1.14822 0.0279,0.0233 0.14545,0.23283 0.26124,0.46566 0.11578,0.23284 0.23909,0.43604 0.27402,0.45156 0.0349,0.0155 0.0635,0.0822 0.0635,0.14817 0,0.066 0.0381,0.11994 0.0847,0.11994 0.0466,0 0.0847,0.073 0.0847,0.16228 0,0.0892 0.0286,0.17498 0.0635,0.1905 0.0571,0.0254 0.31277,0.47049 0.56296,0.98006 0.0513,0.10441 0.12178,0.19014 0.15671,0.1905 0.0349,3.6e-4 0.0635,0.0737 0.0635,0.16294 0,0.0892 0.0286,0.17498 0.0635,0.1905 0.0349,0.0155 0.18192,0.25682 0.32667,0.53622 0.59941,1.15706 0.73805,1.397 0.80718,1.397 0.04,0 0.0727,0.0678 0.0727,0.15064 0,0.0829 0.0762,0.20557 0.16933,0.27269 0.0931,0.0671 0.16934,0.18984 0.16934,0.2727 0,0.0828 0.0381,0.15064 0.0847,0.15064 0.0466,0 0.0847,0.0762 0.0847,0.16933 0,0.0931 0.0381,0.16933 0.0847,0.16933 0.0466,0 0.0847,0.0762 0.0847,0.16934 0,0.0931 0.0381,0.16933 0.0847,0.16933 0.0466,0 0.0847,0.0762 0.0847,0.16933 0,0.0931 0.0381,0.16934 0.0847,0.16934 0.0466,0 0.0847,0.0598 0.0847,0.13291 0,0.0731 0.10644,0.29218 0.23653,0.48683 0.1301,0.19466 0.3644,0.6111 0.52067,0.92542 0.15627,0.31433 0.31653,0.5715 0.35613,0.5715 0.0396,0 0.072,0.0762 0.072,0.16934 0,0.0931 0.0286,0.16963 0.0635,0.16999 0.0349,3.7e-4 0.10368,0.0861 0.15279,0.1905 0.2122,0.45121 0.67843,1.29399 0.74177,1.3409 0.0707,0.0523 0.1477,0.18747 0.57969,1.01687 0.13596,0.26103 0.33136,0.56492 0.43422,0.6753 l 0.18703,0.2007 0.0223,5.6747 0.0223,5.6747 2.60233,0.0442 c 1.43128,0.0243 2.62138,0.0529 2.64466,0.0635 0.0233,0.0106 0.0361,-2.50481 0.0284,-5.58984 z"/>
</g></svg>
