<svg xmlns="http://www.w3.org/2000/svg" width="640" height="160" viewBox="0 0 640 160" preserveAspectRatio="xMidYMid meet"><title>Yuplan Wordmark (dev)</title>
  <defs>
    <linearGradient id="wm" x1="0%" y1="0%" x2="100%" y2="100%">
      <stop offset="0%" stop-color="#0D6EFD"/>
      <stop offset="100%" stop-color="#16A34A"/>
    </linearGradient>
  </defs>
  <!-- Symbol -->
  <g transform="translate(16,16) scale(0.32)">
    <path fill="url(#wm)" d="M 0 187.5 L 0 375.004 L 187.688 374.812 L 375.375 374.625 L 375.562 187.312 L 375.754 0 L 0 0 Z M 0.367 187.875 C 0.367 291 0.457 333.074 0.562 281.379 C 0.668 229.68 0.668 145.305 0.562 93.879 C 0.457 42.453 0.367 84.75 0.367 187.875 M 37.809 92.438 C 38.082 94.191 39.305 97.766 40.52 100.379 C 42.191 103.969 42.551 105.469 41.992 106.516 C 41.582 107.277 41.25 109.844 41.25 112.215 C 41.25 116.508 41.23 116.547 36.812 120.703 C 34.371 122.996 31.195 126.73 29.75 129 C 28.309 131.27 23.727 137.008 19.566 141.75 C 15.41 146.492 12.012 150.883 12.016 151.5 C 12.027 153.035 12.926 154.328 14.188 154.629 C 14.766 154.762 15.984 156.227 16.895 157.875 C 17.805 159.523 23.992 170.637 30.645 182.566 L 42.742 204.262 L 42.934 220.066 L 43.125 235.875 L 57 236.305 L 57.047 227.465 C 57.074 222.602 57.055 215.477 57.004 211.633 C 56.953 207.785 57.23 204.242 57.621 203.758 C 58.012 203.273 59.832 200.176 61.664 196.875 C 63.496 193.574 68.375 184.801 72.504 177.375 C 76.633 169.949 80.961 162.109 82.117 159.949 C 83.953 156.531 84.453 156.086 86.016 156.477 C 88.141 157.012 90.75 155 90.75 152.828 C 90.75 152.039 83.578 142.785 74.812 132.27 C 66.047 121.75 58.773 112.859 58.645 112.508 C 58.52 112.156 59.98 109.742 61.898 107.141 C 66.52 100.863 67.094 99.75 65.715 99.75 C 65.117 99.75 62.883 101.945 60.75 104.625 C 58.617 107.305 56.562 109.5 56.184 109.5 C 54.684 109.5 55.676 107.293 59.242 102.699 C 61.301 100.047 62.988 97.621 62.992 97.312 C 63.012 95.816 61.316 97.152 58.008 101.246 C 54.758 105.27 52.5 106.863 52.5 105.137 C 52.5 104.797 54.164 102.367 56.203 99.738 C 58.238 97.105 59.703 94.629 59.457 94.23 C 59.012 93.508 56.945 95.539 53.09 100.492 C 51.645 102.355 50.824 102.875 50.254 102.301 C 49.68 101.73 50.426 100.238 52.848 97.117 C 55.762 93.367 57.039 90.75 55.953 90.75 C 55.793 90.75 53.844 92.625 51.625 94.918 L 47.586 99.086 L 43.645 94.168 C 38.91 88.258 37.066 87.711 37.809 92.438"/>
  </g>
  <!-- Word -->
  <g transform="translate(180,104)">
    <text x="0" y="0" font-family="'Segoe UI', Roboto, system-ui, Arial, sans-serif" font-size="64" font-weight="700" fill="#0D0D0D">Yuplan</text>
  </g>
</svg>